<svg xmlns="http://www.w3.org/2000/svg" width="54" height="77">
    <defs>
        <filter id="a" width="54" height="77" x="0" y="0" filterUnits="userSpaceOnUse">
            <feOffset dy="2" in="SourceAlpha"/>
            <feGaussianBlur result="blurOut" stdDeviation="1.414"/>
            <feFlood flood-color="#000" result="floodOut"/>
            <feComposite in="floodOut" in2="blurOut" operator="atop"/>
            <feComponentTransfer>
                <feFuncA slope=".8" type="linear"/>
            </feComponentTransfer>
            <feMerge>
                <feMergeNode/>
                <feMergeNode in="SourceGraphic"/>
            </feMerge>
        </filter>
        <linearGradient id="b" x1="0%" x2="0%" y1="100%" y2="0%">
            <stop offset="0%" stop-color="#CFA144"/>
            <stop offset="100%" stop-color="#FCAE12"/>
        </linearGradient>
    </defs>
    <path fill-rule="evenodd" d="M45.156 66.16c-4.399 4.41-10.25 6.839-16.475 6.839-6.173 0-11.99-2.395-16.38-6.744a23.23 23.23 0 0 1-6.909-15.9l-2.477-4.141a6.6 6.6 0 0 1-.935-3.385 6.634 6.634 0 0 1 3.198-5.661 6.52 6.52 0 0 1 3.985-.91 6.594 6.594 0 0 1-.182-1.522 6.634 6.634 0 0 1 3.196-5.661 6.522 6.522 0 0 1 3.597-.926L8.203 15.486a6.598 6.598 0 0 1-.936-3.383 6.631 6.631 0 0 1 3.198-5.66c3.112-1.869 7.16-.852 9.025 2.265l15.409 25.773V6.593a6.56 6.56 0 0 1 1.927-4.662A6.527 6.527 0 0 1 41.478 0c3.627 0 6.579 2.957 6.579 6.593v29.439c2.331 1.016 3.924 3.364 3.924 5.983v7.633c0 6.238-2.423 12.103-6.825 16.512zM9.424 39.363a3.528 3.528 0 0 0-2.695.401 3.544 3.544 0 0 0-1.731 3.066c0 .642.176 1.276.507 1.83l2.68 4.482.001.001.032.054 2.486 4.156a3.56 3.56 0 0 0 6.507-.968 3.555 3.555 0 0 0-.399-2.701l-5.199-8.693a3.539 3.539 0 0 0-2.189-1.628zm6.126-8.197a3.53 3.53 0 0 0-1.822.505 3.545 3.545 0 0 0-1.729 3.065c0 .642.175 1.274.507 1.829l5.197 8.693a3.56 3.56 0 0 0 4.885 1.227 3.58 3.58 0 0 0 1.236-4.875c-.005-.006-.009-.014-.013-.021l-5.189-8.679c-.009-.014-.019-.028-.027-.043a3.564 3.564 0 0 0-3.045-1.701zm1.351-20.903a3.56 3.56 0 0 0-4.885-1.225 3.543 3.543 0 0 0-1.731 3.065c0 .642.175 1.274.507 1.829l10.369 17.343.032.051a.195.195 0 0 0 .01.015l4.455 7.453a6.578 6.578 0 0 1 5.694-3.297h.636L16.901 10.263zm28.137-3.67a3.568 3.568 0 0 0-3.56-3.568c-.951 0-1.845.371-2.518 1.045a3.55 3.55 0 0 0-1.042 2.523v28.904h7.12V6.593zm3.925 43.055v-7.633a3.51 3.51 0 0 0-2.738-3.413 3.51 3.51 0 0 0-.747-.08H31.352a3.569 3.569 0 0 0-2.518 6.092 3.535 3.535 0 0 0 2.518 1.045h3.206a1.51 1.51 0 0 1 1.509 1.512c0 .836-.676 1.513-1.509 1.513h-3.206a6.531 6.531 0 0 1-4.821-2.107 6.539 6.539 0 0 1-2.392 2.503 6.532 6.532 0 0 1-3.371.936c-.204 0-.408-.013-.611-.032a6.563 6.563 0 0 1-.019 3.136 6.547 6.547 0 0 1-3 4.053 6.524 6.524 0 0 1-3.371.937 6.606 6.606 0 0 1-4.111-1.44c2.874 7.748 10.348 13.304 19.025 13.304a20.12 20.12 0 0 0 14.341-5.953 20.21 20.21 0 0 0 5.941-14.373zm-8.739-.965h-.448a1.511 1.511 0 0 1 0-3.024h.448a1.51 1.51 0 0 1 1.509 1.512 1.51 1.51 0 0 1-1.509 1.512z" filter="url(#a)"/>
    <path fill="url(#b)" d="M45.156 66.16c-4.399 4.41-10.25 6.839-16.475 6.839-6.173 0-11.99-2.395-16.38-6.744a23.23 23.23 0 0 1-6.909-15.9l-2.477-4.141a6.6 6.6 0 0 1-.935-3.385 6.634 6.634 0 0 1 3.198-5.661 6.52 6.52 0 0 1 3.985-.91 6.594 6.594 0 0 1-.182-1.522 6.634 6.634 0 0 1 3.196-5.661 6.522 6.522 0 0 1 3.597-.926L8.203 15.486a6.598 6.598 0 0 1-.936-3.383 6.631 6.631 0 0 1 3.198-5.66c3.112-1.869 7.16-.852 9.025 2.265l15.409 25.773V6.593a6.56 6.56 0 0 1 1.927-4.662A6.527 6.527 0 0 1 41.478 0c3.627 0 6.579 2.957 6.579 6.593v29.439c2.331 1.016 3.924 3.364 3.924 5.983v7.633c0 6.238-2.423 12.103-6.825 16.512zM9.424 39.363a3.528 3.528 0 0 0-2.695.401 3.544 3.544 0 0 0-1.731 3.066c0 .642.176 1.276.507 1.83l2.68 4.482.001.001.032.054 2.486 4.156a3.56 3.56 0 0 0 6.507-.968 3.555 3.555 0 0 0-.399-2.701l-5.199-8.693a3.539 3.539 0 0 0-2.189-1.628zm6.126-8.197a3.53 3.53 0 0 0-1.822.505 3.545 3.545 0 0 0-1.729 3.065c0 .642.175 1.274.507 1.829l5.197 8.693a3.56 3.56 0 0 0 4.885 1.227 3.58 3.58 0 0 0 1.236-4.875c-.005-.006-.009-.014-.013-.021l-5.189-8.679c-.009-.014-.019-.028-.027-.043a3.564 3.564 0 0 0-3.045-1.701zm1.351-20.903a3.56 3.56 0 0 0-4.885-1.225 3.543 3.543 0 0 0-1.731 3.065c0 .642.175 1.274.507 1.829l10.369 17.343.032.051a.195.195 0 0 0 .01.015l4.455 7.453a6.578 6.578 0 0 1 5.694-3.297h.636L16.901 10.263zm28.137-3.67a3.568 3.568 0 0 0-3.56-3.568c-.951 0-1.845.371-2.518 1.045a3.55 3.55 0 0 0-1.042 2.523v28.904h7.12V6.593zm3.925 43.055v-7.633a3.51 3.51 0 0 0-2.738-3.413 3.51 3.51 0 0 0-.747-.08H31.352a3.569 3.569 0 0 0-2.518 6.092 3.535 3.535 0 0 0 2.518 1.045h3.206a1.51 1.51 0 0 1 1.509 1.512c0 .836-.676 1.513-1.509 1.513h-3.206a6.531 6.531 0 0 1-4.821-2.107 6.539 6.539 0 0 1-2.392 2.503 6.532 6.532 0 0 1-3.371.936c-.204 0-.408-.013-.611-.032a6.563 6.563 0 0 1-.019 3.136 6.547 6.547 0 0 1-3 4.053 6.524 6.524 0 0 1-3.371.937 6.606 6.606 0 0 1-4.111-1.44c2.874 7.748 10.348 13.304 19.025 13.304a20.12 20.12 0 0 0 14.341-5.953 20.21 20.21 0 0 0 5.941-14.373zm-8.739-.965h-.448a1.511 1.511 0 0 1 0-3.024h.448a1.51 1.51 0 0 1 1.509 1.512 1.51 1.51 0 0 1-1.509 1.512z"/>
</svg>
