<svg xmlns="http://www.w3.org/2000/svg" width="80" height="76">
    <defs>
        <filter id="a" width="80" height="76" x="0" y="0" filterUnits="userSpaceOnUse">
            <feOffset dy="2" in="SourceAlpha"/>
            <feGaussianBlur result="blurOut" stdDeviation="1.414"/>
            <feFlood flood-color="#000" result="floodOut"/>
            <feComposite in="floodOut" in2="blurOut" operator="atop"/>
            <feComponentTransfer>
                <feFuncA slope=".8" type="linear"/>
            </feComponentTransfer>
            <feMerge>
                <feMergeNode/>
                <feMergeNode in="SourceGraphic"/>
            </feMerge>
        </filter>
        <linearGradient id="b" x1="0%" x2="0%" y1="100%" y2="0%">
            <stop offset="0%" stop-color="#CFA144"/>
            <stop offset="100%" stop-color="#FCAE12"/>
        </linearGradient>
    </defs>
    <path fill-rule="evenodd" d="M75.726 32.522L64.011 19.565l-6.833 5.487 1.322 6.533-2.833 1.506s-1.541-4.964-2.71-6.458c-1.168-1.496-7.069-4.09-7.069-4.09l2.973-1.848 5.376 1.583 6.022-7.163L47.976 2.623S49.306.826 51.299.984c1.993.156 14.067 9.023 14.067 9.023s5.95-5.373 6.744-6.092c.794-.714 2.396-1.912 4.633-.06 2.236 1.853.482 3.648.025 4.449-.456.8-7.384 7.548-7.384 7.548S77.536 27.45 77.95 29.44c.414 1.988-2.224 3.081-2.224 3.082zm-35.611-24c-16.433 0-29.803 13.488-29.803 30.064 0 5.53 1.514 10.7 3.588 14.079l-2.866 1.706c-2.37-3.88-4.057-9.635-4.057-15.787 0-18.431 14.866-33.427 33.138-33.427 2.065 0 4.078.217 6.042.585l3.618 4.432a29.404 29.404 0 0 0-9.66-1.652zM7.673 56.559c.376.819 1.331 1.176 2.844 1.064 3.984-.51 22.296-16.35 36.972-30.732 0 0 1.771.662 2.882 1.713 1.111 1.051 1.767 3.113 1.767 3.113-7.655 7.501-33.242 32.024-41.124 32.617-.324.023-.646.035-.959.035-3.879 0-6.992-1.825-8.439-5.002-1.661-3.639.151-9.409 3.106-12.406l3.096 6.957c-1.083 1.097-.57 1.705-.145 2.641zm32.442 12.087c16.434 0 29.805-13.487 29.805-30.06 0-2.558-.329-5.039-.93-7.411l4.054 3.813c.127 1.183.211 2.377.211 3.598 0 18.429-14.866 33.424-33.14 33.424-8.171 0-15.638-3.016-21.412-7.985l2.95-1.896c5.076 4.073 11.483 6.517 18.462 6.517z" filter="url(#a)"/>
    <path fill="url(#b)" d="M75.726 32.522L64.011 19.565l-6.833 5.487 1.322 6.533-2.833 1.506s-1.541-4.964-2.71-6.458c-1.168-1.496-7.069-4.09-7.069-4.09l2.973-1.848 5.376 1.583 6.022-7.163L47.976 2.623S49.306.826 51.299.984c1.993.156 14.067 9.023 14.067 9.023s5.95-5.373 6.744-6.092c.794-.714 2.396-1.912 4.633-.06 2.236 1.853.482 3.648.025 4.449-.456.8-7.384 7.548-7.384 7.548S77.536 27.45 77.95 29.44c.414 1.988-2.224 3.081-2.224 3.082zm-35.611-24c-16.433 0-29.803 13.488-29.803 30.064 0 5.53 1.514 10.7 3.588 14.079l-2.866 1.706c-2.37-3.88-4.057-9.635-4.057-15.787 0-18.431 14.866-33.427 33.138-33.427 2.065 0 4.078.217 6.042.585l3.618 4.432a29.404 29.404 0 0 0-9.66-1.652zM7.673 56.559c.376.819 1.331 1.176 2.844 1.064 3.984-.51 22.296-16.35 36.972-30.732 0 0 1.771.662 2.882 1.713 1.111 1.051 1.767 3.113 1.767 3.113-7.655 7.501-33.242 32.024-41.124 32.617-.324.023-.646.035-.959.035-3.879 0-6.992-1.825-8.439-5.002-1.661-3.639.151-9.409 3.106-12.406l3.096 6.957c-1.083 1.097-.57 1.705-.145 2.641zm32.442 12.087c16.434 0 29.805-13.487 29.805-30.06 0-2.558-.329-5.039-.93-7.411l4.054 3.813c.127 1.183.211 2.377.211 3.598 0 18.429-14.866 33.424-33.14 33.424-8.171 0-15.638-3.016-21.412-7.985l2.95-1.896c5.076 4.073 11.483 6.517 18.462 6.517z"/>
</svg>
