<svg xmlns="http://www.w3.org/2000/svg" width="69" height="77">
    <defs>
        <filter id="a" width="69" height="77" x="0" y="0" filterUnits="userSpaceOnUse">
            <feOffset dy="2" in="SourceAlpha"/>
            <feGaussianBlur result="blurOut" stdDeviation="1.414"/>
            <feFlood flood-color="#000" result="floodOut"/>
            <feComposite in="floodOut" in2="blurOut" operator="atop"/>
            <feComponentTransfer>
                <feFuncA slope=".8" type="linear"/>
            </feComponentTransfer>
            <feMerge>
                <feMergeNode/>
                <feMergeNode in="SourceGraphic"/>
            </feMerge>
        </filter>
        <linearGradient id="b" x1="0%" x2="0%" y1="100%" y2="0%">
            <stop offset="0%" stop-color="#CFA144"/>
            <stop offset="100%" stop-color="#FCAE12"/>
        </linearGradient>
    </defs>
    <path fill-rule="evenodd" d="M62.478 52.013c3.14 3.006 4.615 5.839 4.511 8.661-.152 4.113-3.555 6.919-6.558 9.395-.509.42-.99.817-1.44 1.208l-.02.017c-1.345 1.131-3.226 1.704-5.592 1.704-8.143 0-22.268-7.012-35.468-22.678-5.786-6.781-10.408-14.043-13.358-20.993C1.934 23.159.69 17.338 1.05 12.937c.242-2.971 1.218-5.259 2.823-6.617.426-.368.864-.767 1.328-1.189 2.645-2.405 5.643-5.132 9.343-5.132 3.124 0 5.965 1.935 8.686 5.915 2.026 2.961 3.255 5.424 3.753 7.58 3.846-2.874 8.566-4.476 13.397-4.476 12.358 0 22.411 10.107 22.411 22.531 0 5.965-2.405 11.717-6.546 15.908 1.87.889 3.914 2.387 6.219 4.542l.014.014zm-2.987-20.464c0-10.594-8.573-19.213-19.111-19.213-5.038 0-9.934 2.042-13.498 5.614-.815 2.532-2.888 4.24-5.076 6.041-.207.17-.417.342-.629.518-.728.661-.299 2.639 1.152 5.3 1.464 2.685 3.899 6.027 7.443 10.219 8.399 9.863 11.982 11.336 13.369 11.336.377 0 .566-.121.7-.239.265-.229.518-.453.768-.673l.148-.13a.174.174 0 0 1 .014-.012c2.27-2 4.441-3.849 7.504-3.849l.153.003c4.433-3.625 7.063-9.154 7.063-14.915zm.717 22.872c-3.342-3.124-5.937-4.643-7.933-4.643-1.262 0-2.388.623-3.593 1.561a74.7 74.7 0 0 1 2.687 1.804 42.963 42.963 0 0 1 3.025 2.313c.697.591.785 1.637.197 2.338a1.642 1.642 0 0 1-2.325.198 39.96 39.96 0 0 0-2.792-2.132 74.519 74.519 0 0 0-3.427-2.265.76.76 0 0 0-.043.037c-.783.685-1.774 1.05-2.862 1.05-3.572 0-8.618-3.972-15.88-12.5-3.695-4.37-6.253-7.894-7.826-10.778-2.395-4.39-2.533-7.555-.412-9.409l.032-.027c.222-.185.442-.366.66-.545 2.07-1.704 3.706-3.05 4.116-4.811.463-1.989-.623-4.874-3.321-8.818-2.031-2.97-4.038-4.476-5.967-4.476-.643 0-1.292.16-1.939.433a56.306 56.306 0 0 1 3.617 4.56c.53.744.36 1.781-.38 2.314a1.642 1.642 0 0 1-2.303-.382 52.88 52.88 0 0 0-3.772-4.7c-.809.646-1.598 1.364-2.352 2.049-.482.439-.938.853-1.397 1.251l-.016.013c-.906.763-1.497 2.309-1.664 4.352-.316 3.874.838 9.136 3.25 14.816 2.82 6.643 7.258 13.608 12.834 20.144C32.879 62.951 46.237 69.68 53.379 69.68c1.542 0 2.74-.319 3.465-.924.479-.415.973-.822 1.495-1.253 2.584-2.13 5.256-4.333 5.352-6.952.066-1.79-1.106-3.852-3.483-6.13zm-7.604-20.497v2.707c0 .619-.73.941-1.483.941-.73 0-1.483-.322-1.483-.941v-2.707h-5.475c-.57 0-1.004-.39-1.005-1.056 0-.183.046-.389.161-.596l5.407-10.688c.274-.574.775-.78 1.254-.78.525 0 1.483.458 1.483 1.146a.93.93 0 0 1-.114.391l-4.38 8.808h2.669V28.74c0-.666.753-.941 1.483-.941.753 0 1.483.275 1.483.941v2.409h1.072c.616 0 .936.688.936 1.399 0 .688-.457 1.376-.936 1.376h-1.072zm-12.077 1.033c.502 0 .936.596.936 1.284 0 .688-.433 1.331-.936 1.331h-8.122c-.525 0-1.3-.368-1.3-.941v-2.225c0-3.67 7.346-5.62 7.346-8.854 0-.94-.616-2.041-2.122-2.041-1.118 0-2.03.596-2.03 2.018 0 .551-.571 1.101-1.551 1.101-.776 0-1.347-.366-1.347-1.605 0-2.616 2.373-4.221 4.905-4.221 2.647 0 5.111 1.744 5.111 4.657 0 4.954-7.232 6.559-7.232 8.945v.551h6.342z" filter="url(#a)"/>
    <path fill="url(#b)" d="M62.478 52.013c3.14 3.006 4.615 5.839 4.511 8.661-.152 4.113-3.555 6.919-6.558 9.395-.509.42-.99.817-1.44 1.208l-.02.017c-1.345 1.131-3.226 1.704-5.592 1.704-8.143 0-22.268-7.012-35.468-22.678-5.786-6.781-10.408-14.043-13.358-20.993C1.934 23.159.69 17.338 1.05 12.937c.242-2.971 1.218-5.259 2.823-6.617.426-.368.864-.767 1.328-1.189 2.645-2.405 5.643-5.132 9.343-5.132 3.124 0 5.965 1.935 8.686 5.915 2.026 2.961 3.255 5.424 3.753 7.58 3.846-2.874 8.566-4.476 13.397-4.476 12.358 0 22.411 10.107 22.411 22.531 0 5.965-2.405 11.717-6.546 15.908 1.87.889 3.914 2.387 6.219 4.542l.014.014zm-2.987-20.464c0-10.594-8.573-19.213-19.111-19.213-5.038 0-9.934 2.042-13.498 5.614-.815 2.532-2.888 4.24-5.076 6.041-.207.17-.417.342-.629.518-.728.661-.299 2.639 1.152 5.3 1.464 2.685 3.899 6.027 7.443 10.219 8.399 9.863 11.982 11.336 13.369 11.336.377 0 .566-.121.7-.239.265-.229.518-.453.768-.673l.148-.13a.174.174 0 0 1 .014-.012c2.27-2 4.441-3.849 7.504-3.849l.153.003c4.433-3.625 7.063-9.154 7.063-14.915zm.717 22.872c-3.342-3.124-5.937-4.643-7.933-4.643-1.262 0-2.388.623-3.593 1.561a74.7 74.7 0 0 1 2.687 1.804 42.963 42.963 0 0 1 3.025 2.313c.697.591.785 1.637.197 2.338a1.642 1.642 0 0 1-2.325.198 39.96 39.96 0 0 0-2.792-2.132 74.519 74.519 0 0 0-3.427-2.265.76.76 0 0 0-.043.037c-.783.685-1.774 1.05-2.862 1.05-3.572 0-8.618-3.972-15.88-12.5-3.695-4.37-6.253-7.894-7.826-10.778-2.395-4.39-2.533-7.555-.412-9.409l.032-.027c.222-.185.442-.366.66-.545 2.07-1.704 3.706-3.05 4.116-4.811.463-1.989-.623-4.874-3.321-8.818-2.031-2.97-4.038-4.476-5.967-4.476-.643 0-1.292.16-1.939.433a56.306 56.306 0 0 1 3.617 4.56c.53.744.36 1.781-.38 2.314a1.642 1.642 0 0 1-2.303-.382 52.88 52.88 0 0 0-3.772-4.7c-.809.646-1.598 1.364-2.352 2.049-.482.439-.938.853-1.397 1.251l-.016.013c-.906.763-1.497 2.309-1.664 4.352-.316 3.874.838 9.136 3.25 14.816 2.82 6.643 7.258 13.608 12.834 20.144C32.879 62.951 46.237 69.68 53.379 69.68c1.542 0 2.74-.319 3.465-.924.479-.415.973-.822 1.495-1.253 2.584-2.13 5.256-4.333 5.352-6.952.066-1.79-1.106-3.852-3.483-6.13zm-7.604-20.497v2.707c0 .619-.73.941-1.483.941-.73 0-1.483-.322-1.483-.941v-2.707h-5.475c-.57 0-1.004-.39-1.005-1.056 0-.183.046-.389.161-.596l5.407-10.688c.274-.574.775-.78 1.254-.78.525 0 1.483.458 1.483 1.146a.93.93 0 0 1-.114.391l-4.38 8.808h2.669V28.74c0-.666.753-.941 1.483-.941.753 0 1.483.275 1.483.941v2.409h1.072c.616 0 .936.688.936 1.399 0 .688-.457 1.376-.936 1.376h-1.072zm-12.077 1.033c.502 0 .936.596.936 1.284 0 .688-.433 1.331-.936 1.331h-8.122c-.525 0-1.3-.368-1.3-.941v-2.225c0-3.67 7.346-5.62 7.346-8.854 0-.94-.616-2.041-2.122-2.041-1.118 0-2.03.596-2.03 2.018 0 .551-.571 1.101-1.551 1.101-.776 0-1.347-.366-1.347-1.605 0-2.616 2.373-4.221 4.905-4.221 2.647 0 5.111 1.744 5.111 4.657 0 4.954-7.232 6.559-7.232 8.945v.551h6.342z"/>
</svg>
